<?xml version="1.0"?>
<svg width="520" height="520">
<path d="M 315 340 L 315 315" style="fill:none; stroke:black; stroke-width:1"/>
<path d="M 165 365 L 165 390" style="fill:none; stroke:black; stroke-width:1"/>
<path d="M 190 390 L 165 390" style="fill:none; stroke:black; stroke-width:1"/>
<path d="M 115 265 L 140 240" style="fill:none; stroke:black; stroke-width:1"/>
<path d="M 165 365 L 140 340" style="fill:none; stroke:black; stroke-width:1"/>
<path d="M 440 115 L 415 140" style="fill:none; stroke:black; stroke-width:1"/>
<path d="M 190 390 L 165 365" style="fill:none; stroke:black; stroke-width:1"/>
<path d="M 65 490 L 15 465" style="fill:none; stroke:black; stroke-width:1"/>
<path d="M 390 90 L 340 115" style="fill:none; stroke:black; stroke-width:1"/>
<path d="M 90 215 L 140 240" style="fill:none; stroke:black; stroke-width:1"/>
<path d="M 90 215 L 115 265" style="fill:none; stroke:black; stroke-width:1"/>
<path d="M 290 265 L 315 315" style="fill:none; stroke:black; stroke-width:1"/>
<path d="M 340 390 L 315 340" style="fill:none; stroke:black; stroke-width:1"/>
<path d="M 390 90 L 365 40" style="fill:none; stroke:black; stroke-width:1"/>
<path d="M 165 390 L 140 340" style="fill:none; stroke:black; stroke-width:1"/>
<path d="M 190 315 L 140 340" style="fill:none; stroke:black; stroke-width:1"/>
<path d="M 390 90 L 415 140" style="fill:none; stroke:black; stroke-width:1"/>
<path d="M 440 115 L 390 90" style="fill:none; stroke:black; stroke-width:1"/>
<path d="M 190 315 L 165 365" style="fill:none; stroke:black; stroke-width:1"/>
<path d="M 390 415 L 340 390" style="fill:none; stroke:black; stroke-width:1"/>
<path d="M 290 490 L 215 490" style="fill:none; stroke:black; stroke-width:1"/>
<path d="M 290 190 L 290 265" style="fill:none; stroke:black; stroke-width:1"/>
<path d="M 190 390 L 190 315" style="fill:none; stroke:black; stroke-width:1"/>
<path d="M 365 40 L 340 115" style="fill:none; stroke:black; stroke-width:1"/>
<path d="M 415 140 L 340 115" style="fill:none; stroke:black; stroke-width:1"/>
<path d="M 440 115 L 465 40" style="fill:none; stroke:black; stroke-width:1"/>
<path d="M 140 340 L 115 265" style="fill:none; stroke:black; stroke-width:1"/>
<path d="M 390 290 L 315 315" style="fill:none; stroke:black; stroke-width:1"/>
<path d="M 340 390 L 315 315" style="fill:none; stroke:black; stroke-width:1"/>
<path d="M 290 265 L 315 340" style="fill:none; stroke:black; stroke-width:1"/>
<path d="M 290 190 L 340 115" style="fill:none; stroke:black; stroke-width:1"/>
<path d="M 390 90 L 465 40" style="fill:none; stroke:black; stroke-width:1"/>
<path d="M 190 315 L 140 240" style="fill:none; stroke:black; stroke-width:1"/>
<path d="M 190 315 L 115 265" style="fill:none; stroke:black; stroke-width:1"/>
<path d="M 90 90 L 15 140" style="fill:none; stroke:black; stroke-width:1"/>
<path d="M 365 40 L 465 40" style="fill:none; stroke:black; stroke-width:1"/>
<path d="M 190 390 L 215 490" style="fill:none; stroke:black; stroke-width:1"/>
<path d="M 390 290 L 490 265" style="fill:none; stroke:black; stroke-width:1"/>
<path d="M 290 265 L 390 290" style="fill:none; stroke:black; stroke-width:1"/>
<path d="M 90 215 L 15 140" style="fill:none; stroke:black; stroke-width:1"/>
<path d="M 165 390 L 215 490" style="fill:none; stroke:black; stroke-width:1"/>
<path d="M 15 315 L 115 265" style="fill:none; stroke:black; stroke-width:1"/>
<path d="M 340 390 L 390 290" style="fill:none; stroke:black; stroke-width:1"/>
<path d="M 340 390 L 290 490" style="fill:none; stroke:black; stroke-width:1"/>
<path d="M 190 315 L 290 265" style="fill:none; stroke:black; stroke-width:1"/>
<path d="M 390 415 L 390 290" style="fill:none; stroke:black; stroke-width:1"/>
<path d="M 90 215 L 90 90" style="fill:none; stroke:black; stroke-width:1"/>
<path d="M 390 415 L 290 490" style="fill:none; stroke:black; stroke-width:1"/>
<path d="M 90 215 L 15 315" style="fill:none; stroke:black; stroke-width:1"/>
<path d="M 190 315 L 315 340" style="fill:none; stroke:black; stroke-width:1"/>
<path d="M 240 15 L 365 40" style="fill:none; stroke:black; stroke-width:1"/>
<path d="M 15 315 L 140 340" style="fill:none; stroke:black; stroke-width:1"/>
<path d="M 190 390 L 315 340" style="fill:none; stroke:black; stroke-width:1"/>
<path d="M 290 190 L 415 140" style="fill:none; stroke:black; stroke-width:1"/>
<path d="M 240 15 L 340 115" style="fill:none; stroke:black; stroke-width:1"/>
<path d="M 290 190 L 390 290" style="fill:none; stroke:black; stroke-width:1"/>
<path d="M 190 390 L 290 490" style="fill:none; stroke:black; stroke-width:1"/>
<path d="M 65 490 L 165 390" style="fill:none; stroke:black; stroke-width:1"/>
<path d="M 415 140 L 490 265" style="fill:none; stroke:black; stroke-width:1"/>
<path d="M 15 315 L 15 465" style="fill:none; stroke:black; stroke-width:1"/>
<path d="M 65 490 L 215 490" style="fill:none; stroke:black; stroke-width:1"/>
<path d="M 190 390 L 340 390" style="fill:none; stroke:black; stroke-width:1"/>
<path d="M 290 265 L 140 240" style="fill:none; stroke:black; stroke-width:1"/>
<path d="M 415 140 L 390 290" style="fill:none; stroke:black; stroke-width:1"/>
<path d="M 90 90 L 140 240" style="fill:none; stroke:black; stroke-width:1"/>
<path d="M 290 190 L 140 240" style="fill:none; stroke:black; stroke-width:1"/>
<path d="M 440 115 L 490 265" style="fill:none; stroke:black; stroke-width:1"/>
<path d="M 165 390 L 15 465" style="fill:none; stroke:black; stroke-width:1"/>
<path d="M 240 15 L 90 90" style="fill:none; stroke:black; stroke-width:1"/>
<path d="M 15 315 L 165 390" style="fill:none; stroke:black; stroke-width:1"/>
<path d="M 15 315 L 15 140" style="fill:none; stroke:black; stroke-width:1"/>
<path d="M 390 415 L 490 265" style="fill:none; stroke:black; stroke-width:1"/>
<path d="M 290 190 L 240 15" style="fill:none; stroke:black; stroke-width:1"/>
<path d="M 290 190 L 90 90" style="fill:none; stroke:black; stroke-width:1"/>
<path d="M 490 265 L 465 40" style="fill:none; stroke:black; stroke-width:1"/>
<path d="M 240 15 L 465 40" style="fill:none; stroke:black; stroke-width:1"/>
<circle cx="15" cy="465" r="6" style="fill:white; stroke:black; stroke-width:1"/>
<text x="12" y="456" style="font-size:10; fill:black; stroke:none">1</text>
<circle cx="340" cy="115" r="4" style="fill:white; stroke:black; stroke-width:1"/>
<text x="338" y="108" style="font-size:10; fill:black; stroke:none">2</text>
<circle cx="465" cy="40" r="3" style="fill:white; stroke:black; stroke-width:1"/>
<text x="463.5" y="34" style="font-size:10; fill:black; stroke:none">3</text>
<circle cx="140" cy="240" r="2" style="fill:white; stroke:black; stroke-width:1"/>
<text x="139" y="235" style="font-size:10; fill:black; stroke:none">4</text>
<circle cx="215" cy="490" r="6" style="fill:white; stroke:black; stroke-width:1"/>
<text x="212" y="481" style="font-size:10; fill:black; stroke:none">5</text>
<circle cx="115" cy="265" r="5" style="fill:white; stroke:black; stroke-width:1"/>
<text x="112.5" y="257" style="font-size:10; fill:black; stroke:none">6</text>
<circle cx="315" cy="315" r="3" style="fill:white; stroke:black; stroke-width:1"/>
<text x="313.5" y="309" style="font-size:10; fill:black; stroke:none">7</text>
<circle cx="15" cy="140" r="4" style="fill:white; stroke:black; stroke-width:1"/>
<text x="13" y="133" style="font-size:10; fill:black; stroke:none">8</text>
<circle cx="315" cy="340" r="2" style="fill:white; stroke:black; stroke-width:1"/>
<text x="314" y="335" style="font-size:10; fill:black; stroke:none">9</text>
<circle cx="490" cy="265" r="6" style="fill:white; stroke:black; stroke-width:1"/>
<text x="487" y="256" style="font-size:10; fill:black; stroke:none">10</text>
<circle cx="390" cy="290" r="5" style="fill:white; stroke:black; stroke-width:1"/>
<text x="387.5" y="282" style="font-size:10; fill:black; stroke:none">11</text>
<circle cx="90" cy="90" r="6" style="fill:white; stroke:black; stroke-width:1"/>
<text x="87" y="81" style="font-size:10; fill:black; stroke:none">12</text>
<circle cx="365" cy="40" r="5" style="fill:white; stroke:black; stroke-width:1"/>
<text x="362.5" y="32" style="font-size:10; fill:black; stroke:none">13</text>
<circle cx="290" cy="490" r="5" style="fill:white; stroke:black; stroke-width:1"/>
<text x="287.5" y="482" style="font-size:10; fill:black; stroke:none">14</text>
<circle cx="290" cy="265" r="4" style="fill:white; stroke:black; stroke-width:1"/>
<text x="288" y="258" style="font-size:10; fill:black; stroke:none">15</text>
<circle cx="140" cy="340" r="4" style="fill:white; stroke:black; stroke-width:1"/>
<text x="138" y="333" style="font-size:10; fill:black; stroke:none">16</text>
<circle cx="415" cy="140" r="6" style="fill:white; stroke:black; stroke-width:1"/>
<text x="412" y="131" style="font-size:10; fill:black; stroke:none">17</text>
<circle cx="240" cy="15" r="4" style="fill:white; stroke:black; stroke-width:1"/>
<text x="238" y="8" style="font-size:10; fill:black; stroke:none">18</text>
<circle cx="390" cy="90" r="5" style="fill:white; stroke:black; stroke-width:1"/>
<text x="387.5" y="82" style="font-size:10; fill:black; stroke:none">19</text>
<circle cx="165" cy="390" r="4" style="fill:white; stroke:black; stroke-width:1"/>
<text x="163" y="383" style="font-size:10; fill:black; stroke:none">20</text>
<circle cx="440" cy="115" r="5" style="fill:white; stroke:black; stroke-width:1"/>
<text x="437.5" y="107" style="font-size:10; fill:black; stroke:none">21</text>
<circle cx="165" cy="365" r="5" style="fill:white; stroke:black; stroke-width:1"/>
<text x="162.5" y="357" style="font-size:10; fill:black; stroke:none">22</text>
<circle cx="15" cy="315" r="4" style="fill:white; stroke:black; stroke-width:1"/>
<text x="13" y="308" style="font-size:10; fill:black; stroke:none">23</text>
<circle cx="65" cy="490" r="4" style="fill:white; stroke:black; stroke-width:1"/>
<text x="63" y="483" style="font-size:10; fill:black; stroke:none">24</text>
<circle cx="90" cy="215" r="4" style="fill:white; stroke:black; stroke-width:1"/>
<text x="88" y="208" style="font-size:10; fill:black; stroke:none">25</text>
<circle cx="190" cy="315" r="6" style="fill:white; stroke:black; stroke-width:1"/>
<text x="187" y="306" style="font-size:10; fill:black; stroke:none">26</text>
<circle cx="290" cy="190" r="3" style="fill:white; stroke:black; stroke-width:1"/>
<text x="288.5" y="184" style="font-size:10; fill:black; stroke:none">27</text>
<circle cx="340" cy="390" r="6" style="fill:white; stroke:black; stroke-width:1"/>
<text x="337" y="381" style="font-size:10; fill:black; stroke:none">28</text>
<circle cx="190" cy="390" r="5" style="fill:white; stroke:black; stroke-width:1"/>
<text x="187.5" y="382" style="font-size:10; fill:black; stroke:none">29</text>
<circle cx="390" cy="415" r="5" style="fill:white; stroke:black; stroke-width:1"/>
<text x="387.5" y="407" style="font-size:10; fill:black; stroke:none">30</text>
</svg>
